<svg width="27" height="30" viewBox="0 0 27 30" fill="none" xmlns="http://www.w3.org/2000/svg">
<path d="M10.4058 1.82C10.6234 1.28226 10.9966 0.821751 11.4776 0.497491C11.9585 0.173232 12.5254 0 13.1055 0C13.6856 0 14.2524 0.173232 14.7334 0.497491C15.2144 0.821751 15.5876 1.28226 15.8052 1.82C17.9584 2.41219 19.8578 3.69486 21.2115 5.47103C22.5652 7.2472 23.2984 9.41864 23.2985 11.6519V18.4914L25.9661 22.4928C26.1124 22.7121 26.1965 22.967 26.2093 23.2303C26.2221 23.4937 26.1631 23.7555 26.0388 23.9879C25.9144 24.2204 25.7292 24.4147 25.5031 24.5502C25.2769 24.6856 25.0182 24.7572 24.7546 24.7571H18.151C17.9757 25.9703 17.3692 27.0796 16.4425 27.8819C15.5159 28.6843 14.3312 29.1259 13.1055 29.1259C11.8798 29.1259 10.6951 28.6843 9.76845 27.8819C8.84182 27.0796 8.23528 25.9703 8.05996 24.7571H1.45636C1.19274 24.7572 0.934046 24.6856 0.70789 24.5502C0.481733 24.4147 0.296595 24.2204 0.172226 23.9879C0.0478575 23.7555 -0.011075 23.4937 0.00171511 23.2303C0.0145053 22.967 0.0985385 22.7121 0.24485 22.4928L2.9125 18.4914V11.6519C2.9125 6.95726 6.08689 3.00238 10.4058 1.82ZM11.0465 24.7571C11.1969 25.1833 11.4758 25.5523 11.8447 25.8133C12.2135 26.0743 12.6543 26.2145 13.1062 26.2145C13.5581 26.2145 13.9989 26.0743 14.3678 25.8133C14.7367 25.5523 15.0155 25.1833 15.1659 24.7571H11.045H11.0465ZM13.1055 4.37116C11.1745 4.37116 9.32265 5.13823 7.95725 6.50363C6.59186 7.86902 5.82478 9.7209 5.82478 11.6519V18.9326C5.82485 19.2202 5.73972 19.5014 5.58015 19.7407L4.17789 21.8449H22.0316L20.6294 19.7407C20.4703 19.5013 20.3857 19.2201 20.3862 18.9326V11.6519C20.3862 9.7209 19.6191 7.86902 18.2537 6.50363C16.8883 5.13823 15.0365 4.37116 13.1055 4.37116V4.37116Z" fill="white" fill-opacity="0.9"/>
</svg>
